<?xml version="1.0" encoding="UTF-8" standalone="no"?>
<!-- Created with Inkscape (http://www.inkscape.org/) -->

<svg
   xmlns:dc="http://purl.org/dc/elements/1.1/"
   xmlns:cc="http://creativecommons.org/ns#"
   xmlns:rdf="http://www.w3.org/1999/02/22-rdf-syntax-ns#"
   xmlns:svg="http://www.w3.org/2000/svg"
   xmlns="http://www.w3.org/2000/svg"
   xmlns:sodipodi="http://sodipodi.sourceforge.net/DTD/sodipodi-0.dtd"
   xmlns:inkscape="http://www.inkscape.org/namespaces/inkscape"
   width="297mm"
   height="210mm"
   viewBox="0 0 297 210"
   version="1.1"
   id="svg8"
   inkscape:version="0.92.4 (5da689c313, 2019-01-14)"
   sodipodi:docname="drawing-4.svg">
  <defs
     id="defs2" />
  <sodipodi:namedview
     id="base"
     pagecolor="#ffffff"
     bordercolor="#666666"
     borderopacity="1.0"
     inkscape:pageopacity="0.0"
     inkscape:pageshadow="2"
     inkscape:zoom="0.98994949"
     inkscape:cx="115.01929"
     inkscape:cy="813.22109"
     inkscape:document-units="mm"
     inkscape:current-layer="layer1"
     showgrid="false"
     inkscape:window-width="3840"
     inkscape:window-height="2055"
     inkscape:window-x="-13"
     inkscape:window-y="-13"
     inkscape:window-maximized="1" />
  <metadata
     id="metadata5">
    <rdf:RDF>
      <cc:Work
         rdf:about="">
        <dc:format>image/svg+xml</dc:format>
        <dc:type
           rdf:resource="http://purl.org/dc/dcmitype/StillImage" />
        <dc:title></dc:title>
      </cc:Work>
    </rdf:RDF>
  </metadata>
  <g
     inkscape:label="Layer 1"
     inkscape:groupmode="layer"
     id="layer1"
     transform="translate(0,-87)">
    <path
       id="path3713"
       d="m 320.1301,75.671025 c 15.34987,12.703283 -11.78904,17.005956 9.28458,39.678895 21.0735,22.67295 25.41307,61.04349 10.0632,87.73647 -15.61005,26.69298 -73.36726,44.38109 -125.14061,40.68266 -52.03353,-3.69842 -97.82304,-28.62258 -109.01016,-55.31556 -11.447406,-26.69298 12.22785,-54.99396 20.29306,-78.31011 8.3253,-23.316155 1.56101,-41.486676 12.74813,-54.189959 11.18722,-12.703288 40.58614,-19.939334 63.22076,-15.758504 22.37443,4.341629 102.93099,22.772828 118.54104,35.476108 z"
       inkscape:connector-curvature="0"
       style="fill:#ff0066;stroke-width:2.04536581"
       sodipodi:nodetypes="ccccccccc" />
    <path
       id="path3735"
       d="m 109.27555,103.11857 c 1.85208,3.75708 -0.13229,10.71563 -4.86833,14.26104 -4.762503,3.54542 -12.250211,3.65125 -15.319378,0.68792 -3.069167,-2.93688 -1.693333,-8.94292 0.211667,-12.77938 1.905,-3.81 4.312708,-5.476871 8.360833,-6.006038 4.048128,-0.529166 9.736668,0.05292 11.615208,3.836458 z"
       inkscape:connector-curvature="0"
       style="fill:#ff0066;stroke-width:0.26458332" />
    <path
       id="path3746"
       d="m 142.9123,229.65513 c 3.00353,6.61924 1.6471,18.0995 -4.9736,23.61553 -6.58841,5.51604 -18.40879,5.10233 -24.25438,-0.31028 -5.8133,-5.4126 -5.68412,-15.82413 -2.80976,-22.23652 2.90665,-6.41239 8.52617,-8.79119 15.04998,-9.10146 6.52382,-0.31028 13.95192,1.44796 16.98776,8.03273 z"
       inkscape:connector-curvature="0"
       style="fill:#ff0066;stroke-width:0.33367884" />
    <path
       id="path3757"
       d="m 219.38491,276.53078 c 1.45521,4.52438 -0.76729,10.18646 -3.99521,11.90625 -3.22791,1.74625 -7.46125,-0.39687 -12.96458,-3.73062 -5.5298,-3.30729 -12.35605,-7.77875 -11.69459,-11.21834 0.66146,-3.43958 8.81063,-5.84729 15.45167,-5.37104 6.64104,0.50271 11.77396,3.88938 13.20271,8.41375 z"
       inkscape:connector-curvature="0"
       style="fill:#ff0066;stroke-width:0.26458332" />
    <path
       id="path3768"
       d="m 103.59047,197.41615 c 0.57298,1.56698 1.68076,3.2344 0.0382,5.60495 -1.64257,2.37056 -6.073677,5.46433 -9.167812,3.77682 -3.094135,-1.70761 -4.851299,-8.15631 -3.227832,-11.27017 1.642565,-3.11386 6.68486,-2.87279 9.225104,-2.02903 2.52115,0.86384 2.55935,2.33036 3.13234,3.91743 z"
       inkscape:connector-curvature="0"
       style="fill:#ff0066;stroke-width:0.19588266" />
  </g>
</svg>
